# Blender v2.78 (sub 0) OBJ File: '4 Vertex Corner.blend'
# www.blender.org
mtllib 4 Vertex Corner.mtl
o 4_Vertex_Corner_Cube
v -1.000000 -1.000000 1.000000
v 1.000000 -1.000000 -1.000000
v 1.000000 -1.000000 1.000000
v 1.000000 1.000000 1.000000
vt 0.5900 0.2227
vt 0.2986 0.5141
vt 0.0071 0.2227
vt 0.4084 0.5897
vt 0.6998 0.0849
vt 0.9913 0.5897
vt 0.0071 0.8056
vt 0.5900 0.8056
vn 1.0000 -0.0000 0.0000
vn -0.5774 0.5774 -0.5774
vn 0.0000 -1.0000 0.0000
vn 0.0000 0.0000 1.0000
usemtl Material
s off
f 4/1/1 3/2/1 2/3/1
f 4/4/2 2/5/2 1/6/2
f 3/2/3 1/7/3 2/3/3
f 4/8/4 1/7/4 3/2/4
