# Blender v2.78 (sub 0) OBJ File: '5 Vertex Corner.blend'
# www.blender.org
mtllib 5 Vertex Corner.mtl
o 5_Vertex_Corner_Cube
v 1.000000 -1.000000 -1.000000
v 1.000000 -1.000000 1.000000
v -1.000000 -1.000000 1.000000
v -1.000000 -1.000000 -1.000000
v -1.000000 1.000000 -1.000000
vt 0.5322 0.9836
vt 0.0921 0.9836
vt 0.0921 0.5434
vt 0.5322 0.5434
vt 0.0113 0.0175
vt 0.4514 0.0175
vt 0.0113 0.6399
vt 0.5511 0.9816
vt 0.5511 0.5415
vt 0.9912 0.5415
vt 0.8716 0.0762
vt 0.8716 0.5163
vt 0.2492 0.5163
vt 0.9945 0.9856
vt 0.5544 0.9856
vt 0.9945 0.5454
vn 0.0000 -1.0000 0.0000
vn -0.0000 0.7071 0.7071
vn -1.0000 0.0000 -0.0000
vn 0.7071 0.7071 0.0000
vn 0.0000 0.0000 -1.0000
usemtl Material
s off
f 1/1/1 2/2/1 3/3/1 4/4/1
f 3/5/2 2/6/2 5/7/2
f 5/8/3 4/9/3 3/10/3
f 2/11/4 1/12/4 5/13/4
f 4/14/5 5/15/5 1/16/5
