# Blender v2.78 (sub 0) OBJ File: 'Edge.blend'
# www.blender.org
mtllib Edge.mtl
o Cube_Cube.001
v 1.000000 -1.000000 1.000000
v 1.000000 1.000000 1.000000
v -1.000000 1.000000 1.000000
v -1.000000 -1.000000 1.000000
v 1.000000 -1.000000 -1.000000
v -1.000000 -1.000000 -1.000000
v 1.000000 -1.000000 1.000000
v 1.000000 1.000000 1.000000
v -1.000000 1.000000 1.000000
v -1.000000 -1.000000 1.000000
v 1.000000 -1.000000 -1.000000
v -1.000000 -1.000000 -1.000000
v 1.000000 -1.000000 1.000000
v 1.000000 1.000000 1.000000
v -1.000000 1.000000 1.000000
v -1.000000 -1.000000 1.000000
v 1.000000 -1.000000 -1.000000
v -1.000000 -1.000000 -1.000000
vt 0.2072 0.2929
vt 0.5000 0.2929
vt 0.5000 0.0001
vt 0.2072 0.0001
vt 0.0001 0.7928
vt 0.2072 0.9999
vt 0.2072 0.5858
vt 0.5000 0.5858
vt 0.7071 0.7928
vt 0.5000 0.9999
vt 0.2072 0.2929
vt 0.5000 0.2929
vt 0.5000 0.0001
vt 0.2072 0.0001
vt 0.0001 0.7928
vt 0.2072 0.9999
vt 0.2072 0.5858
vt 0.5000 0.5858
vt 0.7071 0.7928
vt 0.5000 0.9999
vt 0.2072 0.2929
vt 0.2072 0.0001
vt 0.5000 0.0001
vt 0.5000 0.2929
vt 0.0001 0.7928
vt 0.2072 0.5858
vt 0.2072 0.9999
vt 0.5000 0.5858
vt 0.7071 0.7928
vt 0.5000 0.9999
vn -0.0000 -0.0000 -1.0000
vn -1.0000 0.0000 0.0000
vn -0.0000 1.0000 -0.0000
vn 1.0000 0.0000 -0.0000
vn 0.0000 -0.7071 0.7071
vn 0.0000 0.0000 1.0000
vn 0.0000 -1.0000 0.0000
vn -0.0000 0.7071 -0.7071
usemtl None
s 1
f 1/1/1 4/2/1 3/3/1 2/4/1
f 1/5/2 2/6/2 5/7/2
f 1/1/3 5/7/3 6/8/3 4/2/3
f 4/9/4 6/8/4 3/10/4
f 3/10/5 6/8/5 5/7/5 2/6/5
f 7/11/1 10/12/1 9/13/1 8/14/1
f 7/15/2 8/16/2 11/17/2
f 7/11/3 11/17/3 12/18/3 10/12/3
f 10/19/4 12/18/4 9/20/4
f 9/20/5 12/18/5 11/17/5 8/16/5
f 13/21/6 14/22/6 15/23/6 16/24/6
f 13/25/4 17/26/4 14/27/4
f 13/21/7 16/24/7 18/28/7 17/26/7
f 16/29/2 15/30/2 18/28/2
f 15/30/8 14/27/8 17/26/8 18/28/8
